# xmcd
#
# Track frame offsets:
#	150
#	20043
#	37047
#	55276
#	71243
#	88240
#	105554
#	118316
#	135905
#	149295
#	166674
#
# Disc length: 2514 seconds
#
# Revision: 1
# Processed by: cddbd v1.5.2PL0 Copyright (c) Steve Scherf et al.
# Submitted via: audiograbber 1.83.01
#
DISCID=9e09d00b
DTITLE=Various Artist - CDX Volume 411 - December 2006
DYEAR=2006
DGENRE=Country
TTITLE0=Hank Williams Jr. - A Country Boy Can Survive (25th Anniversary Remix)
TTITLE1=Kacey Jones - Amen For Old Friends
TTITLE2=Jimmy Buffett - Everybody's On The Phone
TTITLE3=Cole Deggs and The Lonesome - I Got More
TTITLE4=Carolina Rain - Isn't She
TTITLE5=Jack Ingram - Lips Of An Angel
TTITLE6=Blaine Larsen - Spoken Like A Man
TTITLE7=Keith Urban - Stupid Boy
TTITLE8=Dean Martin And Martina McBride - Baby, Its Cold Outside
TTITLE9=Little Big Town - Go Tell It On The Mountain
TTITLE10=Ronnie Godfrey - Would You Know Him
EXTD=
EXTT0=
EXTT1=
EXTT2=
EXTT3=
EXTT4=
EXTT5=
EXTT6=
EXTT7=
EXTT8=
EXTT9=
EXTT10=
PLAYORDER=
